HIERARCHY
ROOT Hips
{
  OFFSET 54.3218 94.0682 17.3336
  CHANNELS 6 Xposition Yposition Zposition Zrotation Xrotation Yrotation
  JOINT spine
  {
    OFFSET 0 7.80059 0.448573
    CHANNELS 3 Zrotation Xrotation Yrotation
    JOINT spine1
    {
      OFFSET 0 10.1364 0
      CHANNELS 3 Zrotation Xrotation Yrotation
      JOINT spine2
      {
        OFFSET 0 9.71251 0
        CHANNELS 3 Zrotation Xrotation Yrotation
        JOINT Neck
        {
          OFFSET 0 24.9361 1.18887
          CHANNELS 3 Zrotation Xrotation Yrotation
          JOINT Head
          {
            OFFSET 0 7.53384 0
            CHANNELS 3 Zrotation Xrotation Yrotation
            End Site
            {
              OFFSET 0 18.2361 -6.01402
            }
          }
        }
        JOINT RightShoulder
        {
          OFFSET -4.08965 10.4888 -0.569457
          CHANNELS 3 Zrotation Xrotation Yrotation
          JOINT RightArm
          {
            OFFSET 0 13.757 0
            CHANNELS 3 Zrotation Xrotation Yrotation
            JOINT RightArmRoll
            {
              OFFSET 0 6.94478 0
              CHANNELS 3 Zrotation Xrotation Yrotation
              JOINT RightForeArm
              {
                OFFSET 0 20.2277 0
                CHANNELS 3 Zrotation Xrotation Yrotation
                JOINT RightForeArmRoll
                {
                  OFFSET 0 7.79312 0
                  CHANNELS 3 Zrotation Xrotation Yrotation
                  JOINT RightHand
                  {
                    OFFSET 0 15.6391 0
                    CHANNELS 3 Zrotation Xrotation Yrotation
                    End Site
                    {
                      OFFSET 0 0 0
                    }
                  }
                }
              }
            }
          }
        }
        JOINT LeftShoulder
        {
          OFFSET 4.08965 10.4888 -0.569457
          CHANNELS 3 Zrotation Xrotation Yrotation
          JOINT LeftArm
          {
            OFFSET 0 13.757 0
            CHANNELS 3 Zrotation Xrotation Yrotation
            JOINT LeftArmRoll
            {
              OFFSET 0 6.94478 0
              CHANNELS 3 Zrotation Xrotation Yrotation
              JOINT LeftForeArm
              {
                OFFSET 0 20.2277 0
                CHANNELS 3 Zrotation Xrotation Yrotation
                JOINT LeftForeArmRoll
                {
                  OFFSET 0 7.79312 0
                  CHANNELS 3 Zrotation Xrotation Yrotation
                  JOINT LeftHand
                  {
                    OFFSET 0 15.6391 0
                    CHANNELS 3 Zrotation Xrotation Yrotation
                    End Site
                    {
                      OFFSET 0 0 0
                    }
                  }
                }
              }
            }
          }
        }
      }
    }
  }
  JOINT RightUpLeg
  {
    OFFSET -6.91416 -1.26788 -1.06358
    CHANNELS 3 Zrotation Xrotation Yrotation
    JOINT RightUpLegRoll
    {
      OFFSET 0 18.3378 0
      CHANNELS 3 Zrotation Xrotation Yrotation
      JOINT RightLeg
      {
        OFFSET 0 -22.7085 0
        CHANNELS 3 Zrotation Xrotation Yrotation
        JOINT RightLegRoll
        {
          OFFSET 0 22.7828 0
          CHANNELS 3 Zrotation Xrotation Yrotation
          JOINT RightFoot
          {
            OFFSET 0 18.9629 0
            CHANNELS 3 Zrotation Xrotation Yrotation
            JOINT RightToeBase
            {
              OFFSET 0 15.852 0
              CHANNELS 3 Zrotation Xrotation Yrotation
              End Site
              {
                OFFSET 0.00671906 7.67701 -0.884892
              }
            }
          }
        }
      }
    }
  }
  JOINT LeftUpLeg
  {
    OFFSET 6.91416 -1.26788 -1.06358
    CHANNELS 3 Zrotation Xrotation Yrotation
    JOINT LeftUpLegRoll
    {
      OFFSET 0 18.3379 0
      CHANNELS 3 Zrotation Xrotation Yrotation
      JOINT LeftLeg
      {
        OFFSET 0 22.7084 0
        CHANNELS 3 Zrotation Xrotation Yrotation
        JOINT LeftLegRoll
        {
          OFFSET 0 22.9934 0
          CHANNELS 3 Zrotation Xrotation Yrotation
          JOINT LeftFoot
          {
            OFFSET 0 18.7522 0
            CHANNELS 3 Zrotation Xrotation Yrotation
            JOINT LeftToeBase
            {
              OFFSET 0 15.852 0
              CHANNELS 3 Zrotation Xrotation Yrotation
              End Site
              {
                OFFSET -0.030112 7.677 -0.884893
              }
            }
          }
        }
      }
    }
  }
}
MOTION
Frames: 5
Frame Time: 0.00208333
54.7002 94.0775 16.9212 -0.473321 -7.66082 -2.74173 -0.227087 -1.20013 0.258874 -0.448529 1.60147 0.542516 -0.455156 3.24649 0.550338 2.21276 23.5812 -3.10872 12.9745 -22.7277 1.60991 76.6569 -4.01375 -3.74255 107.385 26.6061 -71.1267 -9.7958e-006 4.01188e-006 6.44411e-006 -151.302 60.787 120.767 -8.17516e-006 2.70532e-006 -3 8.02894 -4.95142 0.697685 -65.5168 1.31688 0.117164 -108.013 18.8512 24.6058 6.36111e-015 6.36111e-015 6.36111e-015 171.724 70.4273 -157.811 4.00919e-006 -3.55872e-007 3 -8.02998 -4.95141 -0.697664 174.185 -1.82519 1.07616 180 7.01571e-015 179.035 -179.284 11.6989 178.962 7.09568e-006 -4.46019e-006 -0.025722 -15.3332 69.0786 20.3324 8.13661 25.2343 -3.48546 -178.263 -3.55526 5.53978 4.54188e-006 -4.6773e-006 -1.41848 -4.53966 -11.8086 -0.200926 -8.95488e-007 -4.00096e-006 -0.239448 23.3393 71.2535 -22.8673 -8.13649 25.2327 3.48774 
54.7035 94.0508 16.9007 -0.472856 -7.64661 -2.74098 -0.227558 -1.20428 0.259061 -0.45004 1.59318 0.543252 -0.456682 3.23819 0.551101 2.26708 23.5803 -3.12163 12.9213 -22.721 1.59974 76.6406 -4.01907 -3.74377 107.336 26.6086 -70.834 -9.7958e-006 4.01188e-006 6.44411e-006 -151.606 60.5496 120.922 -8.17516e-006 2.70532e-006 -3 8.02894 -4.95142 0.697685 -65.5085 1.32575 0.111348 -108.023 18.8238 24.179 9.54166e-015 3.18055e-015 9.54166e-015 171.871 70.4152 -158.092 4.00919e-006 -3.55872e-007 3 -8.02998 -4.95141 -0.697664 174.189 -1.80545 1.07179 180 7.01571e-015 179.035 -179.281 11.7112 178.961 7.09568e-006 -4.46019e-006 -0.025485 -15.3382 69.0858 20.3381 8.13661 25.2343 -3.48546 -178.263 -3.53703 5.54168 4.54188e-006 -4.6773e-006 -1.41826 -4.53874 -11.8177 -0.201127 -8.95488e-007 -4.00096e-006 -0.23958 23.3412 71.257 -22.8706 -8.13649 25.2327 3.48774 
54.6953 94.0612 16.9088 -0.470497 -7.6319 -2.7409 -0.227861 -1.2083 0.259008 -0.451377 1.58513 0.543539 -0.458033 3.23015 0.551413 2.30503 23.5702 -3.13134 12.8816 -22.7 1.58911 76.6108 -4.0234 -3.74368 107.311 26.606 -70.5289 -9.7958e-006 4.01188e-006 6.44411e-006 -151.919 60.3148 121.096 -8.17516e-006 2.70532e-006 -3 8.02894 -4.95142 0.697685 -65.5046 1.33579 0.105476 -108.03 18.7997 23.744 -6.36111e-015 9.54166e-015 -3.18055e-015 172.024 70.4024 -158.382 4.00919e-006 -3.55871e-007 3 -8.02998 -4.95141 -0.697664 174.189 -1.78168 1.06904 180 7.01571e-015 179.035 -179.279 11.7292 178.96 7.09568e-006 -4.46019e-006 -0.0252393 -15.3429 69.095 20.3454 8.13661 25.2343 -3.48546 -178.266 -3.51733 5.54654 4.54188e-006 -4.6773e-006 -1.41806 -4.53664 -11.8291 -0.201225 -8.95488e-007 -4.00096e-006 -0.239712 23.3441 71.2617 -22.8751 -8.13649 25.2327 3.48774 
54.6932 94.0492 16.9054 -0.46651 -7.61691 -2.74154 -0.228036 -1.21218 0.25874 -0.452591 1.57737 0.54342 -0.459259 3.22238 0.551315 2.32851 23.5522 -3.13813 12.854 -22.6662 1.57822 76.5697 -4.0268 -3.74244 107.307 26.5987 -70.2132 -9.7958e-006 4.01188e-006 6.44411e-006 -152.238 60.0828 121.286 -8.17516e-006 2.70532e-006 -3 8.02894 -4.95142 0.697685 -65.5045 1.34658 0.0996886 -108.036 18.7786 23.3019 -1.43125e-014 1.27222e-014 -9.54166e-015 172.182 70.3892 -158.679 4.00919e-006 -3.55871e-007 3 -8.02998 -4.95141 -0.697664 174.186 -1.7546 1.06771 180 7.01571e-015 179.035 -179.277 11.7521 178.959 7.09568e-006 -4.46019e-006 -0.0249901 -15.3471 69.1059 20.354 8.13661 25.2343 -3.48546 -178.272 -3.49655 5.55396 4.54188e-006 -4.6773e-006 -1.41789 -4.53349 -11.8426 -0.201227 -8.95488e-007 -4.00096e-006 -0.239842 23.348 71.2675 -22.8807 -8.13649 25.2327 3.48774 
54.7 94.0509 16.9073 -0.461167 -7.60183 -2.74295 -0.228121 -1.21591 0.258286 -0.453731 1.5699 0.542934 -0.46041 3.21491 0.550848 2.33944 23.5273 -3.14227 12.8372 -22.6212 1.5673 76.5192 -4.02937 -3.74022 107.321 26.5875 -69.8885 -9.7958e-006 4.01188e-006 6.44411e-006 -152.561 59.8538 121.489 -8.17516e-006 2.70532e-006 -3 8.02894 -4.95142 0.697685 -65.5075 1.35771 0.094124 -108.041 18.7602 22.8539 -7.95139e-015 1.59028e-014 -3.18055e-015 172.344 70.3758 -158.984 4.00919e-006 -3.55872e-007 3 -8.02998 -4.95141 -0.697664 174.181 -1.72493 1.06761 180 7.01572e-015 179.036 -179.275 11.7791 178.959 7.09568e-006 -4.46019e-006 -0.0247423 -15.3508 69.1182 20.3637 8.13661 25.2343 -3.48546 -178.281 -3.4751 5.56357 4.54188e-006 -4.6773e-006 -1.41774 -4.52942 -11.8577 -0.20114 -8.95488e-007 -4.00096e-006 -0.239969 23.3527 71.2741 -22.8872 -8.13649 25.2327 3.48774 
